Coordinates
version=1
nRows=17
nColumns=24
inDegrees=yes

Units are S.I. units (second, meters, Newtons, ...)
Angles are in degrees.

endheader
time	pelvis_tilt	pelvis_list	pelvis_rotation	pelvis_tx	pelvis_ty	pelvis_tz	hip_flexion_r	hip_adduction_r	hip_rotation_r	knee_angle_r	ankle_angle_r	subtalar_angle_r	mtp_angle_r	hip_flexion_l	hip_adduction_l	hip_rotation_l	knee_angle_l	ankle_angle_l	subtalar_angle_l	mtp_angle_l	lumbar_extension	lumbar_bending	lumbar_rotation
      5.30000000	     14.52464752	      2.67398122	     -0.30129138	      1.76872043	      0.72377813	     -0.25597253	    -29.58944852	     -5.90245192	     -4.76092353	    -34.80669076	     17.13957407	     23.30346551	      0.00000000	     16.43293849	      4.71873574	     -4.46498987	    -23.68666571	     10.38300147	     -0.68428505	      0.00000000	    -35.53337410	      1.24550425	      5.95330849
      5.30500000	     14.59308364	      3.35124264	     -0.16739554	      1.77689845	      0.72451651	     -0.25703813	    -28.92041343	     -6.59541491	     -4.95051441	    -36.97570435	     14.67760309	     22.29454666	      0.00000000	     16.19301047	      5.64154498	     -3.97143239	    -24.63896510	     10.56674964	     -1.22589205	      0.00000000	    -35.52442786	      0.69554703	      5.67307166
      5.31000000	     14.64924058	      4.01288225	     -0.05105667	      1.78497622	      0.72532676	     -0.25806954	    -28.16115013	     -7.28006139	     -5.10437227	    -39.16445006	     12.21849078	     21.08458487	      0.00000000	     15.90302274	      6.55902154	     -3.46510040	    -25.47308233	     10.87046595	     -1.72379975	      0.00000000	    -35.52454992	      0.15650119	      5.40680170
      5.31500000	     14.69270660	      4.65051266	      0.04405670	      1.79294253	      0.72620484	     -0.25905182	    -27.31391295	     -7.94914131	     -5.22104870	    -41.35306436	      9.84568816	     19.67534375	      0.00000000	     15.56304085	      7.45381529	     -2.97511196	    -26.18548998	     11.26665064	     -2.15610242	      0.00000000	    -35.53090934	     -0.36620707	      5.15253154
      5.32000000	     14.71862692	      5.26076366	      0.12158478	      1.80080729	      0.72713543	     -0.25998333	    -26.38358561	     -8.59452395	     -5.29124849	    -43.52232983	      7.61068998	     18.06888382	      0.00000000	     15.18075694	      8.31951089	     -2.49972509	    -26.77987980	     11.74757500	     -2.54080740	      0.00000000	    -35.53662414	     -0.86741675	      4.91204016
      5.32500000	     14.72341572	      5.82381003	      0.18446406	      1.80855820	      0.72810996	     -0.26085055	    -25.36753619	     -9.18810746	     -5.29825405	    -45.65963088	      5.57432704	     16.28456160	      0.00000000	     14.76165264	      9.13060872	     -2.04382826	    -27.25558491	     12.29422684	     -2.88405740	      0.00000000	    -35.53711083	     -1.32820077	      4.68138822
      5.33000000	     14.70786147	      6.33997975	      0.23592878	      1.81620131	      0.72912124	     -0.26166129	    -24.27636624	     -9.72899620	     -5.24962772	    -47.74662881	      3.79339706	     14.35848974	      0.00000000	     14.31405560	      9.88440570	     -1.61255621	    -27.63348570	     12.89484072	     -3.17648056	      0.00000000	    -35.52896632	     -1.74668552	      4.47071627
      5.33500000	     14.67807260	      6.82295970	      0.27467759	      1.82374873	      0.73016376	     -0.26240235	    -23.12395250	    -10.23045483	     -5.15799891	    -49.78021923	      2.31330175	     12.32909846	      0.00000000	     13.82587649	     10.58965217	     -1.21791003	    -27.89627186	     13.52635895	     -3.41624972	      0.00000000	    -35.51684361	     -2.14169607	      4.25293590
      5.34000000	     14.62687166	      7.24565462	      0.31396185	      1.83118948	      0.73123366	     -0.26309404	    -21.90431343	    -10.66226521	     -5.03640847	    -51.74657130	      1.12258292	     10.21513324	      0.00000000	     13.32091388	     11.21807349	     -0.85383567	    -28.08032263	     14.17281113	     -3.61140487	      0.00000000	    -35.49247139	     -2.47479304	      4.06159038
      5.34500000	     14.56199037	      7.63120712	      0.34885371	      1.83855402	      0.73233597	     -0.26371931	    -20.63904631	    -11.03924715	     -4.86966522	    -53.63346051	      0.25633369	      8.06053518	      0.00000000	     12.77971552	     11.79143755	     -0.51537608	    -28.16165550	     14.82743847	     -3.76070169	      0.00000000	    -35.45807815	     -2.77506600	      3.84385889
      5.35000000	     14.48686954	      7.97645022	      0.38560010	      1.84584287	      0.73346418	     -0.26429637	    -19.33582415	    -11.36376509	     -4.68765625	    -55.43600189	     -0.30018599	      5.88720773	      0.00000000	     12.20940484	     12.30628935	     -0.20419362	    -28.16241141	     15.47962361	     -3.86515571	      0.00000000	    -35.41642743	     -3.03477167	      3.61828603
      5.35500000	     14.40539007	      8.29259132	      0.42499794	      1.85307744	      0.73462819	     -0.26481506	    -18.01015960	    -11.64038350	     -4.48653383	    -57.13786765	     -0.55337693	      3.72897830	      0.00000000	     11.59992823	     12.77311207	      0.08577529	    -28.07053225	     16.10884318	     -3.92520691	      0.00000000	    -35.36881306	     -3.26574297	      3.34988867
      5.36000000	     14.31200505	      8.54250497	      0.47917550	      1.86021768	      0.73578989	     -0.26531789	    -16.64893972	    -11.83990277	     -4.29789688	    -58.74718924	     -0.52285008	      1.56645493	      0.00000000	     10.99426853	     13.15682511	      0.36050099	    -27.96212715	     16.74504005	     -3.94858941	      0.00000000	    -35.31454103	     -3.42294745	      3.12335292
      5.36500000	     14.21725757	      8.76539179	      0.54022308	      1.86731955	      0.73698448	     -0.26577531	    -15.28018456	    -11.99429758	     -4.10330436	    -60.24077331	     -0.25699041	     -0.52831571	      0.00000000	     10.35060750	     13.49536323	      0.62401702	    -27.77422925	     17.34316097	     -3.93170124	      0.00000000	    -35.25595979	     -3.55008840	      2.84786938
      5.37000000	     14.11800573	      8.94954103	      0.61467339	      1.87437113	      0.73819532	     -0.26620742	    -13.90100011	    -12.09558500	     -3.91930783	    -61.61754968	      0.21734039	     -2.55093752	      0.00000000	      9.69122880	     13.77804257	      0.87860358	    -27.54574588	     17.91135165	     -3.87695710	      0.00000000	    -35.19213002	     -3.63119254	      2.55249837
      5.37500000	     14.01702204	      9.09985311	      0.70405495	      1.88138045	      0.73941712	     -0.26662149	    -12.51970456	    -12.15331844	     -3.75563626	    -62.87274549	      0.86677441	     -4.46426775	      0.00000000	      9.01344580	     14.01106856	      1.12981625	    -27.27668041	     18.45010015	     -3.78794422	      0.00000000	    -35.12481748	     -3.67132120	      2.23369642
      5.38000000	     13.91957809	      9.24370837	      0.80479125	      1.88839671	      0.74066024	     -0.26703337	    -11.15520016	    -12.20627783	     -3.62814986	    -63.99310355	      1.65352730	     -6.23330172	      0.00000000	      8.29530562	     14.22641486	      1.38615429	    -26.93680218	     18.94526053	     -3.67231158	      0.00000000	    -35.05089072	     -3.69557416	      1.87300555
